<?xml version="1.0" encoding="utf-8" ?>
<svg baseProfile="full" height="900px" version="1.1" width="1440px" xmlns="http://www.w3.org/2000/svg" xmlns:ev="http://www.w3.org/2001/xml-events" xmlns:xlink="http://www.w3.org/1999/xlink"><defs /><rect fill="#F5F7FA" height="900" width="1440" x="0" y="0" /><rect fill="#FFFFFF" height="64" width="1440" x="0" y="0" /><line stroke="#E0E0E0" stroke-width="1" x1="0" x2="1440" y1="64" y2="64" /><circle cx="48" cy="32" fill="#FF6B35" r="14" /><text fill="#1A1A1A" font-family="Arial" font-size="18" font-weight="bold" x="64" y="42">Spider Proxy</text><rect fill="#F5F7FA" height="40" rx="6" stroke="#E0E0E0" stroke-width="1" width="300" x="400" y="12" /><text fill="#999999" font-family="Arial" font-size="14" x="436" y="38">🔍 搜索请求 (支持自然语言)...</text><text font-family="Arial" font-size="20" x="1260" y="42">🔔</text><text font-family="Arial" font-size="20" x="1320" y="42">⚙️</text><text font-family="Arial" font-size="20" x="1380" y="42">👤</text><text fill="#333333" font-family="Arial" font-size="14" x="24" y="100">📊  仪表盘</text><rect fill="#FFF3ED" height="56" width="240" x="0" y="120" /><rect fill="#FF6B35" height="56" width="4" x="0" y="120" /><text fill="#FF6B35" font-family="Arial" font-size="14" x="24" y="156">📦  抓包列表</text><text fill="#333333" font-family="Arial" font-size="14" x="24" y="212">🔍  过滤器</text><text fill="#333333" font-family="Arial" font-size="14" x="24" y="268">📜  脚本编辑</text><text fill="#333333" font-family="Arial" font-size="14" x="24" y="324">⚙️  设置</text><rect fill="#FFFFFF" height="80" width="1080" x="280" y="116" /><rect height="80" stroke="#E0E0E0" stroke-width="1" width="1080" x="280" y="116" /><text fill="#666666" font-family="Arial" font-size="13" x="300" y="141">URL:</text><text fill="#333333" font-family="Arial" font-size="14" x="300" y="166">https://api.example.com/users/123</text><rect fill="#61AFD6" height="32" rx="4" width="70" x="1210" y="136" /><text fill="#FFFFFF" font-family="Arial" font-size="14" font-weight="bold" text-anchor="middle" x="1245" y="158">GET</text><rect fill="#4CAF50" height="32" rx="4" width="50" x="1290" y="136" /><text fill="#FFFFFF" font-family="Arial" font-size="14" font-weight="bold" text-anchor="middle" x="1315" y="158">200</text><text fill="#666666" font-family="Arial" font-size="14" text-anchor="middle" x="388.0" y="226">概览</text><rect fill="#FFFFFF" height="48" width="216.0" x="496.0" y="196" /><rect fill="#FF6B35" height="2" width="216.0" x="496.0" y="242" /><text fill="#FF6B35" font-family="Arial" font-size="14" text-anchor="middle" x="604.0" y="226">请求</text><text fill="#666666" font-family="Arial" font-size="14" text-anchor="middle" x="820.0" y="226">响应</text><text fill="#666666" font-family="Arial" font-size="14" text-anchor="middle" x="1036.0" y="226">Cookie</text><text fill="#666666" font-family="Arial" font-size="14" text-anchor="middle" x="1252.0" y="226">时间线</text><rect fill="#FFFFFF" height="472" width="1080" x="280" y="244" /><rect height="472" stroke="#E0E0E0" stroke-width="1" width="1080" x="280" y="244" /><text fill="#1A1A1A" font-family="Arial" font-size="14" font-weight="bold" x="300" y="279">Request Headers</text><text fill="#666666" font-family="Arial" font-size="13" x="300" y="322">Host:</text><text fill="#333333" font-family="Arial" font-size="13" x="430" y="322">api.example.com</text><text fill="#666666" font-family="Arial" font-size="13" x="300" y="350">User-Agent:</text><text fill="#333333" font-family="Arial" font-size="13" x="430" y="350">SpiderProxy/1.0</text><text fill="#666666" font-family="Arial" font-size="13" x="300" y="378">Accept:</text><text fill="#333333" font-family="Arial" font-size="13" x="430" y="378">application/json</text><text fill="#666666" font-family="Arial" font-size="13" x="300" y="406">Authorization:</text><text fill="#333333" font-family="Arial" font-size="13" x="430" y="406">Bearer eyJhbGc...</text><rect fill="#FF6B35" height="40" rx="6" width="120" x="280" y="746" /><text fill="#FFFFFF" font-family="Arial" font-size="14" font-weight="bold" text-anchor="middle" x="340" y="772">📋 复制</text><rect fill="#4CAF50" height="40" rx="6" width="120" x="420" y="746" /><text fill="#FFFFFF" font-family="Arial" font-size="14" font-weight="bold" text-anchor="middle" x="480" y="772">🔄 重放</text><rect fill="#2196F3" height="40" rx="6" width="120" x="560" y="746" /><text fill="#FFFFFF" font-family="Arial" font-size="14" font-weight="bold" text-anchor="middle" x="620" y="772">📤 导出</text></svg>