<?xml version="1.0" encoding="utf-8" ?>
<svg baseProfile="full" height="900px" version="1.1" width="1440px" xmlns="http://www.w3.org/2000/svg" xmlns:ev="http://www.w3.org/2001/xml-events" xmlns:xlink="http://www.w3.org/1999/xlink"><defs /><rect fill="#F5F7FA" height="900" width="1440" x="0" y="0" /><rect fill="#FFFFFF" height="64" width="1440" x="0" y="0" /><line stroke="#E0E0E0" stroke-width="1" x1="0" x2="1440" y1="64" y2="64" /><circle cx="48" cy="32" fill="#FF6B35" r="14" /><text fill="#1A1A1A" font-family="Arial" font-size="18" font-weight="bold" x="64" y="42">Spider Proxy</text><rect fill="#F5F7FA" height="40" rx="6" stroke="#E0E0E0" stroke-width="1" width="300" x="400" y="12" /><text fill="#999999" font-family="Arial" font-size="14" x="436" y="38">🔍 搜索请求 (支持自然语言)...</text><text font-family="Arial" font-size="20" x="1260" y="42">🔔</text><text font-family="Arial" font-size="20" x="1320" y="42">⚙️</text><text font-family="Arial" font-size="20" x="1380" y="42">👤</text><text fill="#333333" font-family="Arial" font-size="14" x="24" y="100">📊  仪表盘</text><text fill="#333333" font-family="Arial" font-size="14" x="24" y="156">📦  抓包列表</text><text fill="#333333" font-family="Arial" font-size="14" x="24" y="212">🔍  过滤器</text><text fill="#333333" font-family="Arial" font-size="14" x="24" y="268">📜  脚本编辑</text><rect fill="#FFF3ED" height="56" width="240" x="0" y="288" /><rect fill="#FF6B35" height="56" width="4" x="0" y="288" /><text fill="#FF6B35" font-family="Arial" font-size="14" x="24" y="324">⚙️  设置</text><text fill="#1A1A1A" font-family="Arial" font-size="28" font-weight="bold" x="280" y="126">设置</text><text fill="#666666" font-family="Arial" font-size="14" x="280" y="196">抓包设置</text><rect fill="#FFFFFF" height="56" width="500" x="280" y="216" /><line stroke="#E0E0E0" stroke-width="1" x1="280" x2="780" y1="272" y2="272" /><text fill="#333333" font-family="Arial" font-size="14" x="300" y="250">启用 HTTPS 解密</text><rect fill="#4CAF50" height="24" rx="12" width="44" x="720" y="232" /><circle cx="740" cy="244" fill="#FFFFFF" r="10" /><rect fill="#FFFFFF" height="56" width="500" x="280" y="272" /><line stroke="#E0E0E0" stroke-width="1" x1="280" x2="780" y1="328" y2="328" /><text fill="#333333" font-family="Arial" font-size="14" x="300" y="306">自动开始抓包</text><rect fill="#E0E0E0" height="24" rx="12" width="44" x="720" y="288" /><circle cx="724" cy="300" fill="#FFFFFF" r="10" /><rect fill="#FFFFFF" height="56" width="500" x="280" y="328" /><line stroke="#E0E0E0" stroke-width="1" x1="280" x2="780" y1="384" y2="384" /><text fill="#333333" font-family="Arial" font-size="14" x="300" y="362">最大抓包数量</text><rect fill="#F5F7FA" height="32" rx="4" stroke="#E0E0E0" stroke-width="1" width="130" x="630" y="340" /><text fill="#333333" font-family="Arial" font-size="14" x="642" y="362">10,000</text><text fill="#666666" font-family="Arial" font-size="12" x="735" y="362">▼</text><text fill="#666666" font-family="Arial" font-size="14" x="280" y="416">证书管理</text><rect fill="#FFFFFF" height="56" width="500" x="280" y="436" /><line stroke="#E0E0E0" stroke-width="1" x1="280" x2="780" y1="492" y2="492" /><text fill="#333333" font-family="Arial" font-size="14" x="300" y="470">证书状态</text><rect fill="#F5F7FA" height="32" rx="4" stroke="#E0E0E0" stroke-width="1" width="130" x="630" y="448" /><text fill="#333333" font-family="Arial" font-size="14" x="642" y="470">已安装</text><text fill="#666666" font-family="Arial" font-size="12" x="735" y="470">▼</text><rect fill="#FFFFFF" height="56" width="500" x="280" y="492" /><line stroke="#E0E0E0" stroke-width="1" x1="280" x2="780" y1="548" y2="548" /><text fill="#333333" font-family="Arial" font-size="14" x="300" y="526">证书有效期</text><rect fill="#F5F7FA" height="32" rx="4" stroke="#E0E0E0" stroke-width="1" width="130" x="630" y="504" /><text fill="#333333" font-family="Arial" font-size="14" x="642" y="526">365 天</text><text fill="#666666" font-family="Arial" font-size="12" x="735" y="526">▼</text><rect fill="#FFFFFF" height="120" rx="8" width="350" x="820" y="396" /><rect fill="none" height="120" rx="8" stroke="#E0E0E0" stroke-width="1" width="350" x="820" y="396" /><text fill="#1A1A1A" font-family="Arial" font-size="16" font-weight="bold" x="840" y="431">📜 SSL 证书</text><text fill="#4CAF50" font-family="Arial" font-size="14" x="840" y="461">状态：已安装并信任</text><text fill="#666666" font-family="Arial" font-size="13" x="840" y="486">有效期至：2027-03-24</text><text fill="#FF6B35" font-family="Arial" font-size="13" x="1020" y="486">👁️ 查看</text><text fill="#F44336" font-family="Arial" font-size="13" x="1100" y="486">🗑️ 删除</text><text fill="#666666" font-family="Arial" font-size="14" x="280" y="576">显示设置</text><rect fill="#FFFFFF" height="56" width="500" x="280" y="596" /><line stroke="#E0E0E0" stroke-width="1" x1="280" x2="780" y1="652" y2="652" /><text fill="#333333" font-family="Arial" font-size="14" x="300" y="630">主题</text><rect fill="#F5F7FA" height="32" rx="4" stroke="#E0E0E0" stroke-width="1" width="130" x="630" y="608" /><text fill="#333333" font-family="Arial" font-size="14" x="642" y="630">跟随系统</text><text fill="#666666" font-family="Arial" font-size="12" x="735" y="630">▼</text><rect fill="#FFFFFF" height="56" width="500" x="280" y="652" /><line stroke="#E0E0E0" stroke-width="1" x1="280" x2="780" y1="708" y2="708" /><text fill="#333333" font-family="Arial" font-size="14" x="300" y="686">字体大小</text><rect fill="#F5F7FA" height="32" rx="4" stroke="#E0E0E0" stroke-width="1" width="130" x="630" y="664" /><text fill="#333333" font-family="Arial" font-size="14" x="642" y="686">标准</text><text fill="#666666" font-family="Arial" font-size="12" x="735" y="686">▼</text><rect fill="#FFFFFF" height="56" width="500" x="280" y="708" /><line stroke="#E0E0E0" stroke-width="1" x1="280" x2="780" y1="764" y2="764" /><text fill="#333333" font-family="Arial" font-size="14" x="300" y="742">紧凑模式</text><rect fill="#E0E0E0" height="24" rx="12" width="44" x="720" y="724" /><circle cx="724" cy="736" fill="#FFFFFF" r="10" /><text fill="#666666" font-family="Arial" font-size="14" x="280" y="796">存储设置</text><rect fill="#FFFFFF" height="56" width="500" x="280" y="816" /><line stroke="#E0E0E0" stroke-width="1" x1="280" x2="780" y1="872" y2="872" /><text fill="#333333" font-family="Arial" font-size="14" x="300" y="850">存储位置</text><rect fill="#F5F7FA" height="32" rx="4" stroke="#E0E0E0" stroke-width="1" width="130" x="630" y="828" /><text fill="#333333" font-family="Arial" font-size="14" x="642" y="850">~/Documents/SpiderProxy</text><text fill="#666666" font-family="Arial" font-size="12" x="735" y="850">▼</text><rect fill="#FFFFFF" height="56" width="500" x="280" y="872" /><line stroke="#E0E0E0" stroke-width="1" x1="280" x2="780" y1="928" y2="928" /><text fill="#333333" font-family="Arial" font-size="14" x="300" y="906">自动清理</text><rect fill="#4CAF50" height="24" rx="12" width="44" x="720" y="888" /><circle cx="740" cy="900" fill="#FFFFFF" r="10" /><rect fill="#FFFFFF" height="56" width="500" x="280" y="928" /><line stroke="#E0E0E0" stroke-width="1" x1="280" x2="780" y1="984" y2="984" /><text fill="#333333" font-family="Arial" font-size="14" x="300" y="962">保留天数</text><rect fill="#F5F7FA" height="32" rx="4" stroke="#E0E0E0" stroke-width="1" width="130" x="630" y="940" /><text fill="#333333" font-family="Arial" font-size="14" x="642" y="962">30 天</text><text fill="#666666" font-family="Arial" font-size="12" x="735" y="962">▼</text><text fill="#666666" font-family="Arial" font-size="14" x="280" y="1016">关于</text><rect fill="#FFFFFF" height="80" rx="8" width="500" x="280" y="1036" /><rect fill="none" height="80" rx="8" stroke="#E0E0E0" stroke-width="1" width="500" x="280" y="1036" /><text fill="#1A1A1A" font-family="Arial" font-size="16" font-weight="bold" x="300" y="1066">Spider Proxy v1.0.0</text><text fill="#666666" font-family="Arial" font-size="13" x="300" y="1091">© 2026 Spider Proxy Team. Built with ❤️</text></svg>